# xmcd
# Track frame offsets:
# 150
# 15179
# 29810
# 42688
# 58647
# 74709
# 88481
# 103904
# 118523
# 132263
# 144284
# 158371
#
# Disc length: 2313 seconds
# Revision: 1
# Processed by: cddbd v1.5.2PL0 Copyright (c) Steve Scherf et al.
# Submitted via: VisiTrax 2.11.2.271 - For more info visit www.synapsa.com
#
DISCID=ab09070c
DTITLE=Slim Dusty - Slim Dusty Sings
DYEAR=1960
DGENRE=Australian Country
TTITLE0=Slim Dusty - The Sunlander
TTITLE1=Slim Dusty With Joy McKean - Mother
TTITLE2=Slim Dusty - The Rain Still Tumbles Down
TTITLE3=Slim Dusty - Lonesome Road Of Tears
TTITLE4=Slim Dusty - King Bundawaal
TTITLE5=Slim Dusty - Since The Bushland Boogie Came This Way
TTITLE6=Slim Dusty - Harry The Breaker
TTITLE7=Slim Dusty - Walkin' On My Way
TTITLE8=Slim Dusty - A Little Girl Dressed In Blue
TTITLE9=Slim Dusty - The Nature Of Man
TTITLE10=Slim Dusty - Gumtrees By The Roadway
TTITLE11=Slim Dusty - Roaring Wheels
EXTD=YEAR: 2005 EMI Music Austaralia Pty Limited
EXTT0=
EXTT1=
EXTT2=
EXTT3=
EXTT4=
EXTT5=
EXTT6=
EXTT7=
EXTT8=
EXTT9=
EXTT10=
EXTT11=
PLAYORDER=
